<svg xmlns="http://www.w3.org/2000/svg" viewBox="0 0 64 64" width="64" height="64"><path fill="#f9dd8f" d="M18.985,17c2.206,0,4-1.794,4-4s-1.794-4-4-4s-4,1.794-4,4S16.779,17,18.985,17"/><path fill="#faefde" d="M18.985,17c2.206,0,4-1.794,4-4s-1.794-4-4-4s-4,1.794-4,4S16.779,17,18.985,17"/><path fill="#8d6c9f" d="M18.984,18c-2.757,0-5-2.243-5-5s2.243-5,5-5s5,2.243,5,5S21.741,18,18.984,18z M18.984,10 c-1.654,0-3,1.346-3,3s1.346,3,3,3s3-1.346,3-3S20.639,10,18.984,10z"/><path fill="#f283a5" d="M17.723,58.261c-0.907,0.025-1.731-0.52-2.137-1.331c-0.927-1.854-2.798-5.596-3.8-7.599 c-0.422-0.844-0.421-1.834,0.001-2.678l6.197-12.415l0.023-6.006l-7.777,4.628c-0.075,0.018-0.152,0.026-0.23,0.026 c-0.086,0-0.172-0.011-0.255-0.033l-5.22-2.685c-0.824-0.424-1.553-1.53-1.523-2.455c0.05-1.55,1.368-2.504,2.591-2.504 c0.398,0,0.788,0.094,1.156,0.278l3.323,1.662l6.396-4.265l9.724-3.89h8.591c1.042,0,1.993,0.527,2.544,1.41l3.755,5.235 c0.397,0.554,0.549,1.228,0.427,1.898s-0.502,1.249-1.069,1.628c-0.502,0.335-0.995,0.482-1.5,0.476 c-0.8-0.009-1.774-0.666-2.197-1.344c-0.905-1.449-1.807-3.657-1.816-3.681l-0.253-0.623h-6.671L27.985,36.05l1.035,10.186 l2.749,6.873c0.239,0.597,0.221,1.245-0.049,1.828s-0.754,1.016-1.363,1.219c-0.338,0.112-0.605,0.154-0.877,0.151 c-0.846-0.009-1.618-0.488-2.054-1.214L23,47.716l-0.014-6.613c-0.002-1.054-1.399-1.422-1.921-0.507l-4.172,7.322l2.924,7.296 c0.228,0.568,0.211,1.187-0.046,1.742c-0.257,0.555-0.718,0.966-1.299,1.16C18.184,58.212,17.952,58.255,17.723,58.261z"/><path fill="#8d6c9f" d="M34.783,19.994c0.694,0,1.329,0.351,1.697,0.94c0.023,0.036,0.046,0.071,0.071,0.106l3.719,5.183 c0.238,0.332,0.329,0.735,0.256,1.137s-0.301,0.747-0.64,0.974l-0.075,0.05c-0.254,0.169-0.545,0.258-0.843,0.258 c-0.5,0-0.964-0.248-1.24-0.662c-0.742-1.113-1.605-3.077-1.874-3.739c-0.307-0.753-1.039-1.246-1.853-1.246h-5 c-1.104,0-1.999,0.894-2,1.997l-0.015,11.006c0,0.068,0.003,0.137,0.01,0.205l1.015,9.994c0.019,0.186,0.064,0.368,0.133,0.541 l2.697,6.743c0.135,0.338,0.125,0.706-0.028,1.036c-0.153,0.33-0.428,0.575-0.774,0.691l-0.073,0.024 c-0.15,0.05-0.305,0.076-0.46,0.076c-0.493,0-0.938-0.251-1.19-0.672l-4.318-7.196l-0.014-6.443 c-0.002-0.906-0.613-1.698-1.49-1.93C22.325,39.021,22.154,39,21.985,39c-0.706,0-1.376,0.375-1.738,1.01l-3.985,6.994 c-0.302,0.53-0.345,1.168-0.119,1.734l2.745,6.848c0.167,0.417,0.056,0.774-0.025,0.949c-0.081,0.175-0.281,0.49-0.709,0.633 l-0.073,0.024c-0.137,0.046-0.278,0.069-0.419,0.069c-0.489,0-0.928-0.271-1.146-0.706l-3.834-7.669 c-0.28-0.559-0.28-1.227-0.001-1.787l6.093-12.206c0.137-0.275,0.209-0.578,0.211-0.886L19,30.002 c0.003-0.721-0.382-1.387-1.008-1.744c-0.307-0.176-0.65-0.263-0.992-0.263c-0.354,0-0.708,0.094-1.023,0.281l-6.002,3.572 l-5.113-2.629C4.331,28.944,4,28.402,4,27.803c0-0.985,0.826-1.595,1.592-1.595c0.242,0,0.481,0.058,0.71,0.173l2.804,1.402 c0.283,0.141,0.589,0.211,0.894,0.211c0.388,0,0.775-0.113,1.109-0.336l5.827-3.885l9.449-3.78H34.783 M34.783,17.994H26l-10,4 l-6,4l-2.804-1.402c-0.526-0.263-1.072-0.384-1.604-0.384C3.708,24.208,2,25.722,2,27.803c0,1.345,0.752,2.578,1.948,3.193 l5.419,2.787c0.205,0.068,0.419,0.103,0.632,0.103s0.427-0.034,0.632-0.103L17,29.994L16.985,34l-6.093,12.206 c-0.562,1.125-0.561,2.449,0.001,3.574l3.834,7.669c0.568,1.135,1.716,1.812,2.935,1.812c0.349,0,0.703-0.055,1.052-0.172 l0.074-0.025c1.746-0.582,2.641-2.514,1.957-4.223L18,47.994L21.985,41L22,47.994c0,0,2.829,4.714,4.601,7.669 c0.625,1.042,1.736,1.643,2.905,1.643c0.363,0,0.731-0.058,1.092-0.178l0.073-0.025c1.806-0.602,2.732-2.599,2.025-4.366L30,45.994 L28.985,36L29,24.994h5c0,0,1.042,2.564,2.063,4.095c0.671,1.007,1.775,1.553,2.905,1.553c0.67,0,1.349-0.192,1.953-0.594 l0.075-0.05c1.644-1.096,2.052-3.336,0.9-4.941l-3.719-5.183C37.444,18.704,36.162,17.994,34.783,17.994L34.783,17.994z"/><path fill="#f9dd8f" d="M59,35.31V44l-6-2c-1.453-0.418-2,0.367-2,1.878V52c0,2.76-2.69,6-6,6s-6-2.24-6-5s2.69-5,6-5 c0.082,0,0.163,0.001,0.244,0.004C46.748,48.053,48,46.875,48,45.37L48,33L59,35.31z"/><path fill="#ffeb9b" d="M60,41l-13-4v-3.128c0-0.935,0.899-1.607,1.796-1.344L60,35V41z"/><path fill="#efc88e" d="M45,54c-2.46,0-4.571-1.235-5.497-3C39.181,51.613,39,52.288,39,53c0,2.761,2.686,5,6,5s6-2.239,6-5 c0-0.712,0-1,0-2C50.074,52.765,47.46,54,45,54z"/><path fill="#8d6c9f" d="M48.998,33.327c0.091,0,0.185,0.013,0.278,0.039l9,2.735C58.705,36.225,59,36.617,59,37.063v4.919 c0,0.568-0.464,1.001-0.998,1.001c-0.091,0-0.185-0.013-0.278-0.04l-5.447-1.716c-0.093-0.027-0.187-0.04-0.278-0.04 c-0.534,0-0.998,0.433-0.998,1.001V52c0,2.76-2.69,6-6,6s-6-2.24-6-5s2.69-5,6-5c0.623,0,1.22,0.077,1.781,0.222 c0.08,0.021,0.161,0.031,0.239,0.031c0.527,0,0.98-0.444,0.98-1.002V34.328C48,33.76,48.464,33.327,48.998,33.327 M48.998,31.327 c-1.653,0-2.998,1.346-2.998,3.001v11.725C45.67,46.018,45.336,46,45,46c-4.411,0-8,3.14-8,7s3.589,7,8,7c4.505,0,8-4.3,8-8v-8.448 l4.123,1.299l0.024,0.008l0.024,0.007c0.271,0.078,0.55,0.117,0.831,0.117c1.653,0,2.998-1.346,2.998-3.001v-4.919 c0-1.33-0.893-2.516-2.172-2.883l-8.971-2.727C49.558,31.367,49.278,31.327,48.998,31.327L48.998,31.327z"/><g><path fill="#8d6c9f" d="M56.897 20.374c-.501 0-.934-.376-.992-.885-.063-.549.33-1.045.878-1.108l1.986-.229c.552-.064 1.045.331 1.108.878.063.549-.33 1.045-.878 1.108l-1.986.229C56.975 20.372 56.936 20.374 56.897 20.374zM55.573 15.866c-.37 0-.726-.206-.899-.561-.242-.497-.037-1.096.459-1.338l1.797-.878c.497-.243 1.095-.037 1.338.459.242.497.037 1.096-.459 1.338l-1.797.878C55.87 15.834 55.721 15.866 55.573 15.866zM52.839 12.04c-.254 0-.508-.096-.703-.288-.393-.389-.396-1.021-.009-1.415l1.405-1.423c.39-.392 1.021-.396 1.415-.009.393.389.396 1.021.009 1.415l-1.405 1.423C53.354 11.94 53.097 12.04 52.839 12.04zM48.979 9.352c-.144 0-.289-.031-.427-.097-.5-.236-.713-.832-.476-1.331l.856-1.808c.236-.499.835-.712 1.331-.476.5.236.713.832.476 1.331l-.856 1.808C49.713 9.141 49.354 9.352 48.979 9.352zM44.459 8.07c-.034 0-.069-.002-.104-.005-.549-.058-.948-.549-.892-1.099l.206-1.989c.058-.548.539-.938 1.099-.892.549.058.948.549.892 1.099l-.206 1.989C45.399 7.688 44.965 8.07 44.459 8.07zM39.761 8.375c-.453 0-.863-.31-.972-.77l-.461-1.946C38.2 5.122 38.533 4.583 39.07 4.456c.534-.129 1.076.205 1.203.742l.461 1.946c.128.537-.205 1.076-.742 1.203C39.915 8.366 39.837 8.375 39.761 8.375zM35.438 10.215c-.329 0-.65-.162-.842-.459l-1.083-1.682c-.299-.464-.165-1.083.3-1.382.464-.298 1.083-.165 1.382.3l1.083 1.682c.299.464.165 1.083-.3 1.382C35.811 10.163 35.623 10.215 35.438 10.215z"/></g></svg>