<svg xmlns="http://www.w3.org/2000/svg" viewBox="0 0 64 64" width="64" height="64"><path fill="#faefde" d="M23.238,4.941H52c1.656,0,3,1.34,3,3v48c0,1.656-1.344,3-3,3H14c-1.656,0-3-1.344-3-3V17.18 c0-0.797,0.316-1.559,0.879-2.121l9.242-9.238C21.684,5.258,22.445,4.941,23.238,4.941z"/><path fill="#fff7f0" d="M11 59l-.148-9.461L54.34 6.059 55 29 25 59H11zM10.852 39.148L45.059 4.941l5.75.25L11 45 10.852 39.148zM10.852 33.148L39 5h3L10.852 36.148V33.148z"/><path fill="#fff" d="M45.5 13l1.238 2.262L49 16.5l-2.262 1.238L45.5 20l-1.238-2.262L42 16.5l2.262-1.238L45.5 13zM30.422 11l.848 1.559 1.57.863-1.57.848-.848 1.57-.863-1.57L28 13.422l1.559-.863L30.422 11zM16.648 42l.582 1.059 1.07.59-1.07.582-.582 1.07-.578-1.07L15 43.648l1.07-.59L16.648 42z"/><path fill="#bbdef9" d="M23,5v12H11L23,5z"/><path fill="#8d6c9f" d="M53,4H23.66c-1.328-0.004-2.602,0.523-3.539,1.461l-8.66,8.66C10.523,15.059,9.996,16.332,10,17.66 V57c0,1.656,1.344,3,3,3h40c1.656,0,3-1.344,3-3V7C56,5.344,54.656,4,53,4z M21.539,6.879C21.68,6.738,21.836,6.609,22,6.5V15 c0,0.551-0.449,1-1,1h-8.5c0.109-0.164,0.238-0.32,0.379-0.461L21.539,6.879z M54,57c0,0.551-0.449,1-1,1H13c-0.551,0-1-0.449-1-1 V18h9c1.656,0,3-1.344,3-3V6h29c0.551,0,1,0.449,1,1V57z"/><path fill="#8d6c9f" d="M21 24h5c.551 0 1-.449 1-1s-.449-1-1-1h-5c-.551 0-1 .449-1 1S20.449 24 21 24zM21 28h8c.551 0 1-.449 1-1s-.449-1-1-1h-8c-.551 0-1 .449-1 1S20.449 28 21 28zM24 36h-3c-.551 0-1 .449-1 1s.449 1 1 1h3c.551 0 1-.449 1-1S24.551 36 24 36zM25 32h-4c-.551 0-1 .449-1 1s.449 1 1 1h4c.551 0 1-.449 1-1S25.551 32 25 32zM27 37h15c1.102 0 2-.898 2-2s-.898-2-2-2H31L27 37zM44 40H29v4h15c1.102 0 2-.898 2-2S45.102 40 44 40zM15 50c-.551 0-1 .449-1 1v2c0 .551.449 1 1 1s1-.449 1-1v-2C16 50.449 15.551 50 15 50zM20 50c-.551 0-1 .449-1 1v2c0 .551.449 1 1 1s1-.449 1-1v-2C21 50.449 20.551 50 20 50zM25 50c-.551 0-1 .449-1 1v2c0 .551.449 1 1 1s1-.449 1-1v-2C26 50.449 25.551 50 25 50zM30 50c-.551 0-1 .449-1 1v2c0 .551.449 1 1 1s1-.449 1-1v-2C31 50.449 30.551 50 30 50z"/><path fill="#cda1a7" d="M60.071,54.414l-8.314-8.314l-5.657,5.657l8.314,8.314c1.562,1.562,4.095,1.562,5.657,0l0,0 C61.633,58.509,61.633,55.976,60.071,54.414z"/><path fill="#8d6c9f" d="M57.242,62.24c-1.28,0-2.561-0.487-3.535-1.462l-9.021-9.021l7.071-7.071l9.021,9.021 c1.949,1.949,1.949,5.122,0,7.071C59.803,61.753,58.523,62.24,57.242,62.24z M47.515,51.758l7.606,7.606 c1.169,1.167,3.072,1.167,4.243,0c1.169-1.17,1.169-3.073,0-4.243l-7.607-7.606L47.515,51.758z"/><g><path fill="#c2cde7" d="M40,25c-8.284,0-15,6.716-15,15c0,8.284,6.716,15,15,15s15-6.716,15-15C55,31.716,48.284,25,40,25z M40,50c-5.523,0-10-4.477-10-10s4.477-10,10-10s10,4.477,10,10S45.523,50,40,50z"/><path fill="#8d6c9f" d="M40,56c-8.822,0-16-7.178-16-16s7.178-16,16-16s16,7.178,16,16S48.822,56,40,56z M40,26 c-7.72,0-14,6.28-14,14s6.28,14,14,14s14-6.28,14-14S47.72,26,40,26z M40,51c-6.065,0-11-4.935-11-11s4.935-11,11-11 s11,4.935,11,11S46.065,51,40,51z M40,31c-4.962,0-9,4.037-9,9s4.038,9,9,9s9-4.037,9-9S44.962,31,40,31z"/></g></svg>