<svg xmlns="http://www.w3.org/2000/svg" data-name="Layer 1" viewBox="0 0 64 64" width="64" height="64"><path fill="#72caaf" d="M55,17.22V56a3,3,0,0,1-3,3H14a3,3,0,0,1-3-2.63A2.31,2.31,0,0,1,11,56V8a3,3,0,0,1,3-3H42.76a3,3,0,0,1,1.77.58,2,2,0,0,1,.36.3l9.24,9.24a2.69,2.69,0,0,1,.57.82A2.8,2.8,0,0,1,55,17.22Z"/><path fill="#82d8bb" d="M55.08 29l-30 30h-14l0-2.66 0-1.75-.08-5 .08-.08L49.76 10.73l4.37 4.37a2.69 2.69 0 0 1 .57.82L55 26.58zM47.55 8.53L11.08 45 11 42.28l-.08-3.12.08-.08L44.53 5.56a2 2 0 0 1 .36.3zM10.93 33.16L39.08 5.01 42.08 5.01 10.93 36.16 10.93 33.16z"/><path fill="#97e0bb" d="M20.5 15.04L19.26 17.3 17 18.54 19.26 19.78 20.5 22.04 21.74 19.78 24 18.54 21.74 17.3 20.5 15.04zM35.58 10.04L34.73 11.6 33.16 12.46 34.73 13.31 35.58 14.88 36.44 13.31 38 12.46 36.44 11.6 35.58 10.04zM50.35 42.04L49.77 43.1 48.71 43.69 49.77 44.27 50.35 45.34 50.94 44.27 52 43.69 50.94 43.1 50.35 42.04z"/><path fill="#ffefb8" d="M43 5.04L43 17.04 55 17.04 43 5.04z"/><path fill="#8d6c9f" d="M54.54,14.12,45.88,5.46A5,5,0,0,0,42.34,4H13a3,3,0,0,0-3,3V57a3,3,0,0,0,3,3H53a3,3,0,0,0,3-3V17.66A5,5,0,0,0,54.54,14.12Zm-1.41,1.41a3,3,0,0,1,.38.46H45a1,1,0,0,1-1-1V6.5a3,3,0,0,1,.46.38ZM53,58H13a1,1,0,0,1-1-1V7a1,1,0,0,1,1-1H42v9a3,3,0,0,0,3,3h9V57A1,1,0,0,1,53,58Z"/><path fill="#8d6c9f" d="M15 50a1 1 0 0 0-1 1v2a1 1 0 0 0 2 0V51A1 1 0 0 0 15 50zM20 50a1 1 0 0 0-1 1v2a1 1 0 0 0 2 0V51A1 1 0 0 0 20 50zM25 50a1 1 0 0 0-1 1v2a1 1 0 0 0 2 0V51A1 1 0 0 0 25 50zM30 50a1 1 0 0 0-1 1v2a1 1 0 0 0 2 0V51A1 1 0 0 0 30 50zM35 50a1 1 0 0 0-1 1v2a1 1 0 0 0 2 0V51A1 1 0 0 0 35 50zM40 50a1 1 0 0 0-1 1v2a1 1 0 0 0 2 0V51A1 1 0 0 0 40 50zM45 50a1 1 0 0 0-1 1v2a1 1 0 0 0 2 0V51A1 1 0 0 0 45 50zM50 50a1 1 0 0 0-1 1v2a1 1 0 0 0 2 0V51A1 1 0 0 0 50 50z"/><path fill="#fff" d="M45 28H27a1 1 0 0 0 0 2H45a1 1 0 0 0 0-2zM45 34H27a1 1 0 0 0 0 2H45a1 1 0 0 0 0-2zM45 40H27a1 1 0 0 0 0 2H45a1 1 0 0 0 0-2zM22 27A2 2 0 1 0 22 31 2 2 0 1 0 22 27zM22 33A2 2 0 1 0 22 37 2 2 0 1 0 22 33zM22 39A2 2 0 1 0 22 43 2 2 0 1 0 22 39z"/></svg>